<?xml version="1.0" encoding="utf-8"?>
<svg viewBox="0 207.301 960 333.699" xmlns="http://www.w3.org/2000/svg">
  <path d="M0 301L22.8 285.5C45.7 270 91.3 239 137 222.8C182.7 206.7 228.3 205.3 274 209C319.7 212.7 365.3 221.3 411.2 240C457 258.7 503 287.3 548.8 292.5C594.7 297.7 640.3 279.3 686 261.2C731.7 243 777.3 225 823 219.5C868.7 214 914.3 221 937.2 224.5L960 228L960 541L937.2 541C914.3 541 868.7 541 823 541C777.3 541 731.7 541 686 541C640.3 541 594.7 541 548.8 541C503 541 457 541 411.2 541C365.3 541 319.7 541 274 541C228.3 541 182.7 541 137 541C91.3 541 45.7 541 22.8 541L0 541Z" fill="#000000" stroke-linecap="round" stroke-linejoin="miter"/>
</svg>