<?xml version="1.0" encoding="utf-8"?>
<svg id="visual" viewBox="0 0 900 600" width="900" height="600" version="1.1" xmlns="http://www.w3.org/2000/svg">
  <path d="M 0 465 L 21.479 462.117 C 42.959 459.235 85.918 453.471 128.678 454.171 C 171.536 454.83 214.096 461.994 256.955 458.906 C 299.715 455.818 342.673 442.478 385.433 434.861 C 428.292 427.244 470.852 425.349 513.71 429.055 C 556.47 432.761 599.429 442.066 642.188 444.289 C 685.048 446.471 727.607 441.531 770.466 441.448 C 813.226 441.407 856.185 446.183 877.664 448.613 L 899.144 451.001 L 899.144 512.349 L 877.664 512.349 C 856.185 512.349 813.226 512.349 770.466 512.349 C 727.607 512.349 685.048 512.349 642.188 512.349 C 599.429 512.349 556.47 512.349 513.71 512.349 C 470.852 512.349 428.292 512.349 385.433 512.349 C 342.673 512.349 299.715 512.349 256.955 512.349 C 214.096 512.349 171.536 512.349 128.678 512.349 C 85.918 512.349 42.959 512.349 21.479 512.349 L 0 512.349 L 0 465 Z" fill="#FF0C1A" stroke-linecap="round" stroke-linejoin="miter" style=""/>
</svg>