<svg width="478" height="842" viewBox="0 0 478 842" fill="none" xmlns="http://www.w3.org/2000/svg">
<path d="M340.738 129.948C333.142 129.948 325.003 131.576 316.322 134.832C307.64 137.87 298.959 142.211 290.277 147.854C281.596 153.497 273.132 160.333 264.884 168.364C256.854 176.177 249.692 184.75 243.398 194.083C237.321 203.415 232.437 213.399 228.748 224.033C225.058 234.668 223.213 245.52 223.213 256.589C223.213 271.564 225.384 285.346 229.724 297.934C234.065 310.522 239.383 322.568 245.677 334.071C252.188 345.573 259.133 356.859 266.512 367.928C274.108 378.78 281.053 390.066 287.347 401.786C293.859 413.506 299.284 425.985 303.625 439.224C307.966 452.464 310.136 466.896 310.136 482.523C310.136 500.971 308.183 518.768 304.276 535.914C300.37 553.06 294.727 569.229 287.347 584.421C280.185 599.397 271.504 613.07 261.303 625.441C251.32 638.029 240.034 648.772 227.446 657.671C215.075 666.569 201.618 673.514 187.077 678.506C172.753 683.498 157.777 685.994 142.151 685.994C124.137 685.994 108.836 683.173 96.2475 677.53C83.6594 671.887 73.3502 664.725 65.3199 656.043C57.0725 647.579 51.104 638.355 47.4144 628.371C43.7248 618.387 41.88 608.946 41.88 600.048C41.88 584.855 44.4845 571.833 49.6933 560.981C54.6851 549.913 61.0877 540.906 68.901 533.96C76.4972 527.015 84.7446 521.915 93.643 518.659C102.324 515.187 110.463 513.451 118.06 513.451C121.098 513.451 123.377 514.536 124.896 516.706C126.415 518.659 127.175 520.83 127.175 523.217C127.175 526.907 125.656 530.271 122.617 533.309C119.579 536.131 116.215 539.82 112.525 544.378C108.836 548.936 105.471 555.013 102.433 562.609C99.3945 569.988 97.8752 579.972 97.8752 592.56C97.8752 600.59 99.1775 608.512 101.782 616.326C104.169 624.139 107.859 631.084 112.851 637.161C118.06 643.238 124.462 648.121 132.058 651.811C139.872 655.501 148.987 657.345 159.405 657.345C170.691 657.345 181.76 654.849 192.611 649.858C203.68 645.083 213.555 638.138 222.237 629.022C230.918 619.907 237.863 608.838 243.072 595.816C248.498 582.576 251.211 567.71 251.211 551.215C251.211 537.759 249.041 524.519 244.7 511.497C240.576 498.258 235.367 485.236 229.073 472.431C222.779 459.409 215.943 446.604 208.563 434.016C201.184 421.21 194.348 408.405 188.054 395.6C181.76 382.795 176.442 369.99 172.101 357.185C167.978 344.38 165.916 331.358 165.916 318.118C165.916 302.709 168.412 286.757 173.404 270.262C178.613 253.55 185.666 237.273 194.565 221.429C203.463 205.585 214.098 190.501 226.469 176.177C238.84 161.853 252.296 149.265 266.838 138.413C281.379 127.561 296.788 118.988 313.066 112.694C329.344 106.4 345.839 103.253 362.55 103.253C373.402 103.253 382.409 104.881 389.571 108.136C396.733 111.175 402.376 115.19 406.5 120.182C410.841 125.174 413.771 130.925 415.29 137.436C417.026 143.73 417.894 150.133 417.894 156.644C417.894 168.147 416.267 178.89 413.011 188.874C409.973 198.64 405.957 207.539 400.966 215.569C395.974 223.382 390.439 230.328 384.362 236.405C378.285 242.482 372.317 247.582 366.457 251.706C360.597 255.829 355.063 258.976 349.854 261.147C344.862 263.1 340.955 264.077 338.134 264.077C335.095 264.077 332.925 263.751 331.623 263.1C330.538 262.449 329.995 260.278 329.995 256.589C330.863 250.078 333.25 243.024 337.157 235.428C341.064 227.832 345.187 220.018 349.528 211.988C353.869 203.741 357.667 195.276 360.923 186.595C364.395 177.913 366.131 169.232 366.131 160.551C366.131 157.512 365.697 154.256 364.829 150.784C364.178 147.094 362.876 143.73 360.923 140.692C359.186 137.653 356.69 135.157 353.435 133.204C350.179 131.034 345.947 129.948 340.738 129.948Z" fill="#EA0000"/>
<path d="M316.322 134.832L319.763 144.665L319.872 144.627L319.98 144.586L316.322 134.832ZM264.884 168.364L272.149 175.83L272.152 175.828L264.884 168.364ZM243.398 194.083L234.761 188.258L234.714 188.327L234.668 188.398L243.398 194.083ZM245.677 334.071L236.538 339.071L236.574 339.137L236.61 339.202L245.677 334.071ZM266.512 367.928L257.844 373.707L257.91 373.805L257.977 373.902L266.512 367.928ZM287.347 401.786L278.169 406.715L278.205 406.78L278.241 406.845L287.347 401.786ZM287.347 584.421L277.977 579.87L277.963 579.898L277.949 579.927L287.347 584.421ZM261.303 625.441L253.265 618.813L253.202 618.89L253.141 618.968L261.303 625.441ZM227.446 657.671L221.432 649.164L221.397 649.189L221.362 649.214L227.446 657.671ZM187.077 678.506L183.694 668.653L183.672 668.661L183.649 668.669L187.077 678.506ZM65.3199 656.043L72.9675 648.969L72.8757 648.87L72.7814 648.773L65.3199 656.043ZM49.6933 560.981L59.0851 565.49L59.1389 565.378L59.19 565.264L49.6933 560.981ZM68.901 533.96L75.8221 541.747L75.8767 541.698L75.9305 541.649L68.901 533.96ZM93.643 518.659L97.2224 528.443L97.3681 528.39L97.5121 528.332L93.643 518.659ZM124.896 516.706L116.362 522.68L116.512 522.895L116.673 523.102L124.896 516.706ZM122.617 533.309L129.706 540.943L129.847 540.812L129.984 540.676L122.617 533.309ZM102.433 562.609L112.066 566.576L112.086 566.527L112.106 566.478L102.433 562.609ZM101.782 616.326L111.745 613.281L111.707 613.156L111.665 613.031L101.782 616.326ZM112.851 637.161L104.801 643.774L104.87 643.858L104.941 643.941L112.851 637.161ZM132.058 651.811L127.507 661.182L127.558 661.207L127.61 661.231L132.058 651.811ZM192.611 649.858L188.485 640.292L188.371 640.341L188.258 640.393L192.611 649.858ZM243.072 595.816L233.433 591.865L233.416 591.906L233.4 591.947L243.072 595.816ZM244.7 511.497L234.754 514.595L234.784 514.694L234.817 514.792L244.7 511.497ZM229.073 472.431L219.694 476.964L219.709 476.995L219.724 477.026L229.073 472.431ZM208.563 434.016L199.537 439.217L199.557 439.251L199.576 439.284L208.563 434.016ZM188.054 395.6L197.403 391.005L188.054 395.6ZM172.101 357.185L162.185 360.378L162.21 360.454L162.235 360.529L172.101 357.185ZM173.404 270.262L163.458 267.162L163.445 267.203L163.433 267.245L173.404 270.262ZM194.565 221.429L203.648 226.531L203.648 226.531L194.565 221.429ZM266.838 138.413L273.068 146.762L266.838 138.413ZM389.571 108.136L385.26 117.62L385.381 117.675L385.503 117.727L389.571 108.136ZM406.5 120.182L398.468 126.817L398.552 126.918L398.639 127.018L406.5 120.182ZM415.29 137.436L405.145 139.803L405.192 140.006L405.247 140.207L415.29 137.436ZM413.011 188.874L403.107 185.644L403.085 185.711L403.064 185.779L413.011 188.874ZM400.966 215.569L409.745 221.178L409.779 221.124L409.813 221.069L400.966 215.569ZM349.854 261.147L353.65 270.848L353.756 270.807L353.861 270.763L349.854 261.147ZM331.623 263.1L326.263 272.033L326.606 272.239L326.964 272.418L331.623 263.1ZM329.995 256.589L319.669 255.212L319.577 255.897V256.589H329.995ZM349.528 211.988L358.693 216.942L358.72 216.891L358.747 216.84L349.528 211.988ZM360.923 186.595L351.25 182.726L351.208 182.831L351.168 182.937L360.923 186.595ZM364.829 150.784L354.57 152.594L354.634 152.955L354.723 153.311L364.829 150.784ZM360.923 140.692L351.877 145.86L352.012 146.096L352.159 146.325L360.923 140.692ZM353.435 133.204L347.656 141.872L347.862 142.01L348.075 142.137L353.435 133.204ZM340.738 119.531C331.651 119.531 322.265 121.477 312.664 125.077L319.98 144.586C327.741 141.676 334.633 140.366 340.738 140.366V119.531ZM312.88 124.999C303.321 128.345 293.894 133.078 284.6 139.119L295.955 156.589C304.024 151.344 311.96 147.396 319.763 144.665L312.88 124.999ZM284.6 139.119C275.289 145.171 266.298 152.447 257.617 160.9L272.152 175.828C279.965 168.22 287.903 161.822 295.955 156.589L284.6 139.119ZM257.619 160.897C249.074 169.211 241.453 178.335 234.761 188.258L252.035 199.908C257.931 191.165 264.634 183.143 272.149 175.83L257.619 160.897ZM234.668 188.398C228.124 198.447 222.869 209.194 218.906 220.619L238.59 227.448C242.005 217.604 246.517 208.383 252.128 199.767L234.668 188.398ZM218.906 220.619C214.842 232.333 212.796 244.338 212.796 256.589H233.631C233.631 246.702 235.275 237.004 238.59 227.448L218.906 220.619ZM212.796 256.589C212.796 272.578 215.115 287.522 219.876 301.33L239.573 294.538C235.653 283.17 233.631 270.551 233.631 256.589H212.796ZM219.876 301.33C224.405 314.464 229.958 327.046 236.538 339.071L254.816 329.07C248.807 318.089 243.726 306.581 239.573 294.538L219.876 301.33ZM236.61 339.202C243.247 350.927 250.325 362.429 257.844 373.707L275.18 362.149C267.94 351.29 261.128 340.22 254.743 328.939L236.61 339.202ZM257.977 373.902C265.338 384.417 272.068 395.354 278.169 406.715L296.525 396.857C290.038 384.778 282.879 373.143 275.047 361.954L257.977 373.902ZM278.241 406.845C284.418 417.965 289.583 429.835 293.726 442.47L313.524 435.979C308.986 422.136 303.299 409.047 296.454 396.726L278.241 406.845ZM293.726 442.47C297.684 454.543 299.718 467.866 299.718 482.523H320.554C320.554 465.926 318.248 450.384 313.524 435.979L293.726 442.47ZM299.718 482.523C299.718 500.23 297.844 517.249 294.119 533.599L314.434 538.228C318.522 520.287 320.554 501.712 320.554 482.523H299.718ZM294.119 533.599C290.381 550.004 284.995 565.419 277.977 579.87L296.718 588.973C304.458 573.038 310.358 556.115 314.434 538.228L294.119 533.599ZM277.949 579.927C271.139 594.165 262.909 607.118 253.265 618.813L269.341 632.069C280.099 619.022 289.231 604.628 296.746 588.916L277.949 579.927ZM253.141 618.968C243.747 630.812 233.177 640.861 221.432 649.164L233.459 666.178C246.89 656.683 258.892 645.246 269.465 631.915L253.141 618.968ZM221.362 649.214C209.826 657.512 197.281 663.989 183.694 668.653L190.459 688.36C205.956 683.04 220.323 675.627 233.529 666.128L221.362 649.214ZM183.649 668.669C170.46 673.265 156.646 675.576 142.151 675.576V696.412C158.909 696.412 175.045 693.731 190.505 688.344L183.649 668.669ZM142.151 675.576C125.176 675.576 111.413 672.912 100.509 668.023L91.986 687.036C106.258 693.434 123.097 696.412 142.151 696.412V675.576ZM100.509 668.023C88.9911 662.86 79.8992 656.463 72.9675 648.969L57.6722 663.117C66.8012 672.986 78.3277 680.913 91.986 687.036L100.509 668.023ZM72.7814 648.773C65.4388 641.237 60.3171 633.232 57.1862 624.76L37.6427 631.982C41.891 643.478 48.7062 653.92 57.8584 663.313L72.7814 648.773ZM57.1862 624.76C53.8422 615.711 52.2977 607.499 52.2977 600.048H31.4623C31.4623 610.394 33.6074 621.063 37.6427 631.982L57.1862 624.76ZM52.2977 600.048C52.2977 586.019 54.7047 574.615 59.0851 565.49L40.3015 556.473C34.2643 569.051 31.4623 583.692 31.4623 600.048H52.2977ZM59.19 565.264C63.6759 555.317 69.2672 547.573 75.8221 541.747L61.9798 526.174C52.9082 534.238 45.6944 544.508 40.1967 556.699L59.19 565.264ZM75.9305 541.649C82.6114 535.541 89.7059 531.193 97.2224 528.443L90.0637 508.876C79.7833 512.637 70.3831 518.49 61.8714 526.272L75.9305 541.649ZM97.5121 528.332C105.238 525.242 112.056 523.868 118.06 523.868V503.033C108.871 503.033 99.4107 505.132 89.774 508.987L97.5121 528.332ZM118.06 523.868C118.34 523.868 118.085 523.916 117.569 523.67C117.316 523.55 117.064 523.388 116.835 523.192C116.607 522.997 116.454 522.812 116.362 522.68L133.431 510.732C129.653 505.335 123.921 503.033 118.06 503.033V523.868ZM116.673 523.102C116.736 523.183 116.766 523.233 116.775 523.251C116.784 523.267 116.78 523.263 116.773 523.24C116.765 523.218 116.759 523.195 116.757 523.18C116.754 523.165 116.757 523.175 116.757 523.217H137.593C137.593 518.424 136.005 514.02 133.119 510.31L116.673 523.102ZM116.757 523.217C116.757 523.688 116.683 524.511 115.251 525.943L129.984 540.676C134.628 536.031 137.593 530.125 137.593 523.217H116.757ZM115.529 525.675C112.015 528.938 108.312 533.026 104.428 537.823L120.622 550.933C124.118 546.615 127.143 543.324 129.706 540.943L115.529 525.675ZM104.428 537.823C99.8795 543.442 96.0457 550.527 92.7604 558.74L112.106 566.478C114.897 559.499 117.792 554.43 120.622 550.933L104.428 537.823ZM92.8 558.643C89.0314 567.795 87.4575 579.308 87.4575 592.56H108.293C108.293 580.636 109.758 572.182 112.066 566.576L92.8 558.643ZM87.4575 592.56C87.4575 601.739 88.9494 610.772 91.8988 619.62L111.665 613.031C109.405 606.253 108.293 599.442 108.293 592.56H87.4575ZM91.8189 619.37C94.5887 628.435 98.9104 636.603 104.801 643.774L120.901 630.548C116.807 625.565 113.75 619.843 111.745 613.281L91.8189 619.37ZM104.941 643.941C111.13 651.162 118.697 656.903 127.507 661.182L136.61 642.44C130.227 639.34 124.989 635.314 120.76 630.381L104.941 643.941ZM127.61 661.231C137.071 665.699 147.76 667.763 159.405 667.763V646.928C150.214 646.928 142.673 645.302 136.507 642.391L127.61 661.231ZM159.405 667.763C172.281 667.763 184.829 664.904 196.965 659.322L188.258 640.393C178.69 644.794 169.101 646.928 159.405 646.928V667.763ZM196.738 659.423C209.151 654.068 220.176 646.292 229.781 636.207L214.693 621.838C206.935 629.983 198.209 636.097 188.485 640.292L196.738 659.423ZM229.781 636.207C239.475 626.028 247.1 613.797 252.745 599.685L233.4 591.947C228.627 603.879 222.362 613.785 214.693 621.838L229.781 636.207ZM252.712 599.766C258.724 585.097 261.629 568.86 261.629 551.215H240.793C240.793 566.56 238.272 580.056 233.433 591.865L252.712 599.766ZM261.629 551.215C261.629 536.616 259.271 522.266 254.583 508.203L234.817 514.792C238.811 526.773 240.793 538.901 240.793 551.215H261.629ZM254.646 508.399C250.358 494.632 244.947 481.11 238.423 467.835L219.724 477.026C225.787 489.362 230.794 501.885 234.754 514.595L254.646 508.399ZM238.453 467.897C232.037 454.623 225.069 441.573 217.551 428.747L199.576 439.284C206.816 451.635 213.522 464.195 219.694 476.964L238.453 467.897ZM217.59 428.814C210.321 416.2 203.592 403.597 197.403 391.005L178.704 400.196C185.103 413.213 192.048 426.221 199.537 439.217L217.59 428.814ZM197.403 391.005C191.297 378.583 186.156 366.195 181.968 353.84L162.235 360.529C166.729 373.785 172.222 387.007 178.704 400.196L197.403 391.005ZM182.018 353.992C178.221 342.201 176.334 330.256 176.334 318.118H155.498C155.498 332.459 157.735 346.558 162.185 360.378L182.018 353.992ZM176.334 318.118C176.334 303.844 178.645 288.91 183.375 273.28L163.433 267.245C158.179 284.603 155.498 301.574 155.498 318.118H176.334ZM183.349 273.362C188.333 257.372 195.093 241.763 203.648 226.531L185.482 216.328C176.24 232.782 168.892 249.729 163.458 267.162L183.349 273.362ZM203.648 226.531C212.191 211.32 222.419 196.805 234.353 182.986L218.585 169.368C205.777 184.198 194.735 199.851 185.482 216.328L203.648 226.531ZM234.353 182.986C246.252 169.209 259.158 157.143 273.068 146.762L260.607 130.064C245.435 141.386 231.428 154.496 218.585 169.368L234.353 182.986ZM273.068 146.762C286.881 136.454 301.463 128.35 316.823 122.411L309.309 102.978C292.114 109.626 275.877 118.668 260.607 130.064L273.068 146.762ZM316.823 122.411C331.956 116.559 347.18 113.671 362.55 113.671V92.8354C344.497 92.8354 326.731 96.2409 309.309 102.978L316.823 122.411ZM362.55 113.671C372.445 113.671 379.863 115.167 385.26 117.62L393.882 98.6525C384.955 94.5947 374.36 92.8354 362.55 92.8354V113.671ZM385.503 117.727C391.434 120.243 395.604 123.349 398.468 126.817L414.532 113.547C409.149 107.031 402.033 102.107 393.64 98.546L385.503 117.727ZM398.639 127.018C401.853 130.714 404.007 134.927 405.145 139.803L425.435 135.069C423.534 126.923 419.828 119.633 414.361 113.346L398.639 127.018ZM405.247 140.207C406.735 145.601 407.477 151.072 407.477 156.644H428.312C428.312 149.194 427.317 141.86 425.333 134.666L405.247 140.207ZM407.477 156.644C407.477 167.154 405.991 176.798 403.107 185.644L422.916 192.103C426.542 180.982 428.312 169.14 428.312 156.644H407.477ZM403.064 185.779C400.267 194.769 396.606 202.849 392.118 210.069L409.813 221.069C415.309 212.228 419.678 202.512 422.959 191.968L403.064 185.779ZM392.187 209.96C387.569 217.188 382.5 223.534 376.996 229.038L391.729 243.771C398.379 237.121 404.379 229.577 409.745 221.178L392.187 209.96ZM376.996 229.038C371.261 234.773 365.747 239.466 360.462 243.186L372.452 260.225C378.887 255.697 385.309 250.19 391.729 243.771L376.996 229.038ZM360.462 243.186C355.065 246.984 350.197 249.718 345.847 251.53L353.861 270.763C359.928 268.235 366.129 264.675 372.452 260.225L360.462 243.186ZM346.058 251.445C341.387 253.273 338.958 253.659 338.134 253.659V274.494C342.952 274.494 348.337 272.927 353.65 270.848L346.058 251.445ZM338.134 253.659C336.951 253.659 336.194 253.593 335.773 253.53C335.572 253.5 335.52 253.481 335.583 253.499C335.639 253.514 335.899 253.59 336.282 253.782L326.964 272.418C330.584 274.228 334.868 274.494 338.134 274.494V253.659ZM336.983 254.167C338.604 255.14 339.501 256.369 339.934 257.121C340.357 257.853 340.49 258.384 340.509 258.457C340.534 258.558 340.413 258.056 340.413 256.589H319.577C319.577 258.812 319.728 261.24 320.295 263.51C320.763 265.381 322.083 269.525 326.263 272.033L336.983 254.167ZM340.321 257.966C340.993 252.931 342.905 247.03 346.421 240.192L327.893 230.663C323.596 239.018 320.734 247.224 319.669 255.212L340.321 257.966ZM346.421 240.192C350.293 232.664 354.384 224.914 358.693 216.942L340.364 207.034C335.991 215.123 331.834 223 327.893 230.663L346.421 240.192ZM358.747 216.84C363.29 208.208 367.267 199.345 370.677 190.253L351.168 182.937C348.067 191.207 344.448 199.273 340.309 207.136L358.747 216.84ZM370.595 190.464C374.522 180.647 376.549 170.656 376.549 160.551H355.714C355.714 167.807 354.269 175.179 351.25 182.726L370.595 190.464ZM376.549 160.551C376.549 156.525 375.975 152.414 374.936 148.257L354.723 153.311C355.42 156.099 355.714 158.499 355.714 160.551H376.549ZM375.088 148.973C374.206 143.975 372.414 139.303 369.686 135.058L352.159 146.325C353.338 148.158 354.15 150.214 354.57 152.594L375.088 148.973ZM369.968 135.523C367.272 130.805 363.447 127.062 358.795 124.271L348.075 142.137C349.933 143.252 351.101 144.502 351.877 145.86L369.968 135.523ZM359.214 124.536C353.764 120.903 347.336 119.531 340.738 119.531V140.366C344.559 140.366 346.594 141.164 347.656 141.872L359.214 124.536Z" fill="black"/>
<path d="M35.0049 623.604C45.1477 692.486 115.118 708.423 175.645 696.529L35.0049 623.604Z" fill="#018F0F" stroke="black" stroke-width="10.4177" stroke-linecap="round" stroke-linejoin="round"/>
<path d="M17.3163 725.16C43.1789 713.799 55.4363 703.055 73.1384 675.693L87.094 689.826C77.5263 718.678 67.9534 725.297 45.2268 746.36C13.2614 751.276 10.2595 749.8 17.3163 725.16Z" fill="#018F0F" stroke="black" stroke-width="10.4177" stroke-linecap="round" stroke-linejoin="round"/>
<path d="M79.2598 689.585C79.5048 688.83 79.6029 688.085 80.1028 687.513C80.4064 687.166 80.6796 686.381 80.8316 685.956C81.2076 684.903 81.9797 683.951 82.4105 682.898C82.7065 682.175 83.1605 681.463 83.375 680.712C83.6921 679.602 84.3041 678.454 84.7611 677.368C84.9435 676.935 84.5496 677.588 84.5039 677.74C83.971 679.51 83.4564 681.193 82.6749 682.877C81.9341 684.472 80.9264 686.06 80.4458 687.756C80.3207 688.198 80.1942 688.66 79.9671 689.064C79.3435 690.172 78.5437 691.229 77.4879 691.972C76.2127 692.869 78.1211 690.034 78.1667 689.943C78.8181 688.64 79.4167 687.258 79.9028 685.884C80.128 685.248 80.8307 684.629 81.446 684.377C82.5669 683.918 83.3911 682.255 84.7897 682.255C85.4482 682.255 86.3458 681.583 86.9116 682.262C87.5427 683.02 87.9983 683.412 89.0335 683.412C89.4722 683.412 89.8302 683.469 90.2552 683.534C90.5634 683.581 90.8164 683.597 91.1197 683.698C91.3221 683.766 92.2268 683.829 91.577 683.791C89.6907 683.68 87.7514 683.647 85.8756 683.441C84.342 683.273 83.0722 683.278 82.732 685.013C82.4961 686.216 81.8149 687.209 81.0531 688.114C80.4253 688.859 80.297 689.982 79.8385 690.807C79.7015 691.054 79.4738 691.167 79.3312 691.4C79.0641 691.837 78.9903 692.373 78.7168 692.829C78.3824 693.386 78.0787 694.509 77.4308 694.758C76.5694 695.089 76.2115 695.859 75.7875 696.601C75.5748 696.973 75.4425 696.892 75.3303 696.401C75.1182 695.474 75.5383 694.258 75.7161 693.343C76.1789 690.963 75.4017 688.863 75.4017 686.499C75.4017 685.63 75.2321 684.617 75.6589 683.87C75.7474 683.715 76.1548 683.807 76.3019 683.791C76.7133 683.745 76.911 683.375 77.2022 683.127C77.8216 682.598 77.9467 681.652 78.1095 680.919C78.4057 679.586 79.1106 678.101 79.7456 676.854C80.2794 675.805 80.4172 675.012 80.4172 673.846C80.4172 672.872 80.2245 675.791 80.0028 676.739C79.5605 678.632 79.4205 681.117 78.2238 682.712C77.8507 683.21 76.4148 684.264 75.8804 683.384C75.557 682.851 75.6589 682.05 75.6589 681.455C75.6589 680.832 75.604 680.175 75.7304 679.562C75.8373 679.042 76.0447 678.622 76.0447 678.083C76.0447 677.148 76.1299 676.453 75.5303 675.682C75.0553 675.071 74.9254 674.228 74.3015 673.717C74.0743 673.531 73.7682 673.548 73.537 673.317C73.3077 673.088 72.9902 672.912 72.7011 672.767C72.2911 672.562 71.9728 672.221 71.5723 672.067C70.9916 671.844 70.4364 671.406 69.8719 671.124C69.7725 671.074 69.3928 670.66 69.6718 670.895C70.0829 671.242 70.0792 671.778 70.5292 672.053C71.0796 672.389 71.3977 672.673 72.0652 672.796C72.6516 672.904 73.0773 672.934 73.6013 673.196C74.4175 673.604 74.6301 674.679 74.6301 675.539C74.6301 677.182 74.6301 678.826 74.6301 680.469C74.6301 682.047 74.1268 683.928 73.2441 685.241C72.9302 685.708 72.6138 686.392 72.5654 686.949C72.5348 687.301 72.3251 687.826 72.0295 688.042C71.2168 688.636 70.7039 689.616 70.3291 690.536C69.8946 691.602 69.0719 692.415 68.4501 693.379C68.1315 693.873 67.8431 694.648 67.4213 695.044C67.1983 695.253 66.9369 695.496 66.814 695.787C66.6289 696.224 66.4433 696.4 66.3925 696.908C66.3667 697.166 66.3545 697.72 66.2424 697.944C66.026 698.377 65.1063 698.717 65.0064 699.166C64.9789 699.29 65.1211 699.365 65.0779 699.509C64.9545 699.92 64.4908 700.276 64.242 700.616C63.9841 700.97 63.777 701.45 63.3846 701.674C62.1731 702.366 61.6896 703.382 61.5413 704.832C61.4859 705.374 61.4957 705.826 61.3199 706.354C61.273 706.494 61.0867 706.812 61.3913 706.704C62.3932 706.348 63.4112 705.581 64.1705 704.86C66.1872 702.947 67.1363 700.12 68.4287 697.73C69.0306 696.617 69.7486 695.566 70.4291 694.501C71.5436 692.756 73.0012 691.482 74.4587 690.035C76.4788 688.031 78.3739 685.491 78.8168 682.612C79.1033 680.75 79.2799 678.562 78.9954 676.689C78.5694 673.885 76.0708 672.405 74.8873 670.038" stroke="#018F0F" stroke-width="5.20886"/>
<circle cx="170.436" cy="581.933" r="49.4847" fill="#FFC700" stroke="black" stroke-width="5.20886"/>
<circle cx="175.645" cy="482.964" r="33.858" fill="#FF8A00" stroke="black" stroke-width="5.20886"/>
<circle cx="133.974" cy="410.039" r="33.858" fill="#FF8A00" stroke="black" stroke-width="5.20886"/>
<circle cx="97.5116" cy="467.337" r="18.2312" fill="#A8A8A8" stroke="black" stroke-width="5.20886"/>
<circle cx="337.122" cy="404.83" r="18.2312" fill="#A8A8A8" stroke="black" stroke-width="5.20886"/>
<circle cx="326.704" cy="175.638" r="18.2312" fill="#A8A8A8" stroke="black" stroke-width="5.20886"/>
<circle cx="285.033" cy="227.727" r="28.649" fill="#FFC700" stroke="black" stroke-width="5.20886"/>
<circle cx="321.495" cy="326.696" r="44.2758" fill="#FF8A00" stroke="black" stroke-width="5.20886"/>
</svg>
