<svg width="1203" height="734" viewBox="0 0 1203 734" fill="none" xmlns="http://www.w3.org/2000/svg">
<path d="M427.933 370.809C424.898 378.017 421.736 383.961 418.448 388.641C415.16 393.194 411.872 396.798 408.584 399.454C405.296 402.11 402.197 403.943 399.288 404.955C396.38 405.967 393.787 406.473 391.511 406.473C389.993 406.473 388.412 406.346 386.768 406.093C385.25 405.84 383.733 405.334 382.215 404.576C379.686 410.267 376.904 415.578 373.868 420.511C370.96 425.443 367.798 429.68 364.383 433.221C360.969 436.762 357.364 439.544 353.57 441.567C349.903 443.591 346.109 444.603 342.188 444.603C337.762 444.603 334.284 443.148 331.755 440.24C329.225 437.457 327.265 434.043 325.874 429.996C324.483 425.949 323.597 421.775 323.218 417.475C322.839 413.049 322.649 409.381 322.649 406.473C322.649 404.576 322.649 402.489 322.649 400.213C322.649 397.936 322.775 395.533 323.028 393.004C319.993 399.833 316.705 406.346 313.164 412.543C309.623 418.74 305.955 424.178 302.161 428.857C298.367 433.41 294.51 437.015 290.589 439.67C286.669 442.453 282.748 443.844 278.828 443.844C274.654 443.844 271.113 442.516 268.205 439.86C265.422 437.204 263.209 433.663 261.565 429.237C259.794 424.811 258.53 419.815 257.771 414.25C257.012 408.559 256.633 402.742 256.633 396.798C256.633 382.886 257.961 369.86 260.616 357.719C263.146 345.452 266.244 334.323 269.912 324.332C273.706 314.341 277.753 305.678 282.053 298.343C286.353 290.881 290.21 285 293.625 280.701C294.257 279.815 294.889 279.246 295.522 278.993C296.154 278.74 296.66 278.614 297.039 278.614C298.81 278.614 300.264 279.689 301.402 281.839C303.173 285 305.007 288.731 306.904 293.031C308.927 297.331 309.939 301.631 309.939 305.931C309.939 307.701 309.559 309.535 308.801 311.432C308.042 313.329 307.03 315.542 305.765 318.072C304.501 320.601 303.046 323.636 301.402 327.177C299.885 330.719 298.304 335.018 296.66 340.077C295.395 343.871 293.877 348.74 292.107 354.684C290.463 360.628 288.882 366.888 287.364 373.465C285.847 380.041 284.519 386.554 283.381 393.004C282.369 399.454 281.863 405.018 281.863 409.698C281.863 412.986 282.242 415.768 283.001 418.044C283.887 420.194 285.088 421.269 286.606 421.269C288.25 421.269 290.273 419.625 292.676 416.337C295.205 412.923 297.861 408.623 300.644 403.437C303.426 398.126 306.271 392.245 309.18 385.795C312.089 379.345 314.808 373.022 317.337 366.825C319.867 360.628 322.08 354.874 323.977 349.562C326 344.124 327.518 339.951 328.53 337.042C330.047 332.236 331.565 327.494 333.082 322.814C334.6 318.009 336.054 313.772 337.446 310.104C338.837 306.31 340.101 303.275 341.24 300.999C342.378 298.596 343.453 297.394 344.465 297.394C345.223 297.394 346.235 297.647 347.5 298.153C348.764 298.532 349.966 299.038 351.104 299.671C352.242 300.303 353.191 301.062 353.95 301.947C354.835 302.832 355.278 303.654 355.278 304.413C355.278 307.575 354.582 312.065 353.191 317.882C351.926 323.7 350.472 330.466 348.828 338.18C347.31 345.768 345.856 354.178 344.465 363.41C343.2 372.643 342.568 382.317 342.568 392.435C342.568 403.943 343.326 412.101 344.844 416.906C346.488 421.586 348.954 423.925 352.242 423.925C353.886 423.925 355.657 423.293 357.554 422.028C359.451 420.637 361.348 418.803 363.245 416.527C365.142 414.124 367.039 411.405 368.936 408.37C370.833 405.208 372.667 401.857 374.437 398.316C371.276 394.648 368.746 389.463 366.849 382.76C364.952 375.931 364.004 367.141 364.004 356.391C364.004 349.056 364.763 342.354 366.28 336.283C367.924 330.213 369.885 325.091 372.161 320.917C374.564 316.617 377.093 313.329 379.749 311.053C382.405 308.65 384.745 307.448 386.768 307.448C387.527 307.448 388.539 307.638 389.803 308.018C391.194 308.27 392.459 309.219 393.597 310.863C394.862 312.381 395.937 314.847 396.822 318.261C397.707 321.55 398.15 326.229 398.15 332.299C398.15 342.164 397.012 352.661 394.736 363.79C392.586 374.919 389.55 385.669 385.63 396.039C387.906 397.81 390.499 398.695 393.408 398.695C398.087 398.695 402.956 396.166 408.015 391.107C413.073 385.922 417.816 378.207 422.242 367.963C422.622 366.825 423.128 366.066 423.76 365.687C424.392 365.181 425.025 364.928 425.657 364.928C426.416 364.928 427.111 365.181 427.744 365.687C428.502 366.193 428.882 366.825 428.882 367.584C428.882 367.837 428.755 368.279 428.502 368.912C428.376 369.544 428.186 370.176 427.933 370.809ZM376.714 365.307C376.714 369.607 376.904 373.591 377.283 377.259C377.662 380.8 378.358 383.961 379.37 386.744C381.014 382.57 382.405 378.27 383.543 373.844C384.808 369.291 385.82 364.865 386.578 360.565C387.337 356.265 387.906 352.218 388.286 348.424C388.665 344.503 388.855 341.089 388.855 338.18C388.855 337.674 388.855 336.852 388.855 335.714C388.855 334.449 388.792 333.185 388.665 331.92C388.539 330.655 388.286 329.58 387.906 328.695C387.653 327.683 387.274 327.177 386.768 327.177C385.503 327.177 384.239 328.505 382.974 331.161C381.836 333.691 380.761 336.915 379.749 340.836C378.864 344.63 378.105 348.74 377.473 353.167C376.967 357.593 376.714 361.64 376.714 365.307ZM527.147 242.95C527.147 245.732 526.325 249.084 524.681 253.004C523.037 256.798 520.887 260.466 518.231 264.007C515.702 267.421 512.856 270.33 509.695 272.733C506.659 275.136 503.687 276.337 500.779 276.337C496.858 276.337 493.507 275.136 490.725 272.733C488.069 270.33 486.741 267.801 486.741 265.145C486.741 264.007 487.12 262.299 487.879 260.023C488.764 257.747 489.839 255.281 491.104 252.625C492.495 249.842 494.076 247.06 495.846 244.278C497.743 241.369 499.704 238.776 501.727 236.5C503.877 234.097 505.964 232.2 507.987 230.809C510.137 229.291 512.224 228.533 514.248 228.533C519.306 228.533 522.721 229.734 524.491 232.137C526.262 234.54 527.147 238.144 527.147 242.95ZM502.676 374.223C498.249 384.214 493.38 393.383 488.069 401.73C482.884 409.951 477.509 417.033 471.944 422.977C466.379 428.794 460.625 433.347 454.681 436.635C448.864 439.923 443.109 441.567 437.418 441.567C433.118 441.567 429.451 440.619 426.416 438.722C423.38 436.951 420.914 434.485 419.017 431.324C416.994 428.162 415.539 424.494 414.654 420.321C413.769 416.021 413.326 411.405 413.326 406.473C413.326 397.241 414.591 388.135 417.12 379.156C419.65 370.05 422.875 361.197 426.795 352.597C430.842 343.871 435.395 335.335 440.454 326.988C445.512 318.641 450.571 310.547 455.63 302.706C456.768 300.809 458.159 299.102 459.803 297.584C461.447 296.066 463.028 295.308 464.546 295.308C466.696 295.308 468.846 295.687 470.996 296.446C473.146 297.205 475.106 298.216 476.876 299.481C478.647 300.619 480.038 301.947 481.05 303.465C482.188 304.856 482.757 306.31 482.757 307.828C482.757 309.598 481.682 312.507 479.532 316.554C477.382 320.601 474.663 325.47 471.375 331.161C468.087 336.726 464.546 342.923 460.752 349.752C457.084 356.581 453.606 363.663 450.318 370.998C447.03 378.334 444.311 385.732 442.161 393.194C440.011 400.529 438.936 407.548 438.936 414.25C438.936 415.895 438.999 417.539 439.126 419.183C439.379 420.7 439.821 422.091 440.454 423.356C441.212 424.494 442.287 425.443 443.679 426.202C445.196 426.834 447.22 427.15 449.749 427.15C452.405 427.15 455.693 425.569 459.613 422.408C463.66 419.246 467.834 415.072 472.134 409.887C476.56 404.576 480.923 398.632 485.223 392.055C489.65 385.353 493.507 378.523 496.795 371.568C497.807 369.544 498.945 368.532 500.21 368.532C501.095 368.532 501.854 368.785 502.486 369.291C503.118 369.797 503.435 370.556 503.435 371.568C503.435 372.326 503.182 373.212 502.676 374.223ZM611.944 374.223C609.414 380.547 606 387.692 601.7 395.66C597.527 403.501 592.405 410.962 586.334 418.044C580.264 425 573.245 430.881 565.277 435.687C557.31 440.366 548.267 442.706 538.15 442.706C532.838 442.706 527.969 441.82 523.543 440.05C519.117 438.406 515.006 435.687 511.212 431.893C507.545 428.099 504.004 423.166 500.589 417.096C497.301 411.026 494.013 403.627 490.725 394.901C490.345 393.636 489.966 392.182 489.586 390.538C489.08 388.894 488.827 387.123 488.827 385.226C488.827 382.444 489.207 379.535 489.966 376.5C490.598 373.338 491.863 370.493 493.76 367.963C494.519 367.078 495.404 366.066 496.416 364.928C497.427 363.663 498.502 362.462 499.64 361.324C500.652 360.059 501.727 358.984 502.865 358.099C504.004 357.087 505.015 356.391 505.901 356.012C507.924 352.85 510.074 349.309 512.35 345.389C514.627 341.468 516.84 337.421 518.99 333.248C521.14 328.948 523.163 324.585 525.061 320.158C526.958 315.732 528.475 311.369 529.613 307.069C529.993 305.298 530.309 303.591 530.562 301.947C530.815 300.303 531.131 298.912 531.51 297.774C531.763 296.762 532.522 295.244 533.787 293.221C535.051 291.197 536.506 288.984 538.15 286.581C539.92 284.178 541.691 281.712 543.462 279.183C545.359 276.654 547.066 274.44 548.583 272.543C550.733 269.635 552.567 267.548 554.085 266.283C555.602 265.019 557.12 264.386 558.638 264.386C560.408 264.386 561.799 264.955 562.811 266.094C563.949 267.105 564.518 268.18 564.518 269.318C564.518 270.33 564.329 271.342 563.949 272.354C563.57 273.365 563.38 275.199 563.38 277.855C563.38 280.258 563.57 283.04 563.949 286.202C564.329 289.364 565.024 292.715 566.036 296.256C566.668 298.912 567.68 303.212 569.071 309.156C570.462 314.973 571.854 321.613 573.245 329.074C574.636 336.536 575.837 344.377 576.849 352.597C577.987 360.818 578.556 368.532 578.556 375.741C578.556 379.535 577.987 383.708 576.849 388.261C575.837 392.688 574.32 397.177 572.296 401.73C570.399 406.157 568.06 410.456 565.277 414.63C562.495 418.677 559.396 422.218 555.982 425.253C561.673 424.747 566.795 423.103 571.348 420.321C575.901 417.539 580.137 413.808 584.058 409.129C588.105 404.449 591.899 398.948 595.44 392.624C598.981 386.301 602.522 379.282 606.063 371.568C607.075 369.544 608.213 368.532 609.478 368.532C610.363 368.532 611.122 368.785 611.754 369.291C612.386 369.797 612.703 370.556 612.703 371.568C612.703 372.326 612.45 373.212 611.944 374.223ZM540.426 314.467C538.529 317.756 536.379 321.423 533.976 325.47C531.7 329.517 529.297 333.754 526.768 338.18C524.238 342.48 521.709 346.843 519.18 351.27C516.65 355.696 514.248 359.869 511.971 363.79C512.983 366.572 513.995 369.734 515.006 373.275C516.018 376.816 517.093 380.231 518.231 383.519C519.369 386.933 520.571 390.538 521.836 394.332C523.227 398.126 524.744 401.857 526.388 405.524C528.159 409.065 530.182 412.353 532.459 415.389C534.735 418.297 537.518 420.637 540.806 422.408C543.967 418.108 546.307 413.175 547.825 407.611C549.342 402.046 550.101 396.608 550.101 391.297C550.101 384.341 549.975 377.891 549.722 371.947C549.469 365.877 548.963 359.869 548.204 353.925C547.572 347.981 546.623 341.848 545.359 335.524C544.094 329.201 542.45 322.182 540.426 314.467Z" fill="#1E1E1E"/>
<path d="M846.776 536.032C841.13 551.121 834.266 563.398 826.183 572.863C818.228 582.324 809.772 589.775 800.817 595.215C791.858 600.53 782.726 604.204 773.421 606.239C764.243 608.27 755.608 609.4 747.518 609.629C741.07 609.811 735.362 609.277 730.392 608.026C725.423 606.775 721.202 605.186 717.732 603.26C714.265 601.461 711.616 599.511 709.786 597.412C707.955 595.313 707.016 593.442 706.97 591.799C706.905 589.523 707.226 587.427 707.93 585.509C708.635 583.591 709.537 581.921 710.635 580.498C711.856 578.945 713.152 577.77 714.521 576.972C716.013 576.044 717.454 575.561 718.845 575.521C720.488 575.475 721.77 576.071 722.691 577.31C723.738 578.546 724.794 580.097 725.859 581.965C726.924 583.833 728.184 585.885 729.639 588.121C731.094 590.357 733.114 592.451 735.7 594.402C738.192 593.066 741.274 590.195 744.945 585.79C748.612 581.258 752.507 575.834 756.63 569.518C760.749 563.075 764.851 556 768.934 548.294C773.141 540.457 776.964 532.505 780.405 524.437C784.908 513.682 788.19 504.479 790.251 496.83C792.308 489.054 793.411 483.33 793.56 479.656C793.517 478.139 793.294 476.944 792.889 476.07C792.481 475.069 791.898 474.579 791.14 474.601C789.876 474.637 787.45 476.097 783.862 478.982C780.272 481.741 776.014 485.53 771.09 490.351C766.288 495.041 760.943 500.633 755.054 507.125C749.288 513.488 743.471 520.295 737.603 527.546C731.732 534.671 726.057 542.043 720.58 549.663C715.102 557.282 710.251 564.694 706.027 571.899C704.632 576.24 702.839 582.174 700.648 589.7C698.327 597.104 695.836 605.209 693.175 614.014C690.388 622.822 687.608 631.884 684.836 641.198C682.063 650.513 679.46 659.126 677.027 667.039C674.598 675.079 672.452 681.971 670.591 687.717C668.733 693.59 667.511 697.357 666.925 699.018C664.919 704.136 662.755 708.119 660.432 710.968C658.108 713.817 655.872 715.272 653.723 715.333C652.585 715.365 651.488 714.574 650.43 712.959C649.249 711.474 648.179 709.417 647.219 706.787C646.262 704.284 645.484 701.396 644.886 698.124C644.161 694.855 643.752 691.577 643.658 688.29C643.594 686.014 644.063 682.459 645.065 677.623C645.94 672.79 647.363 667.183 649.333 660.801C651.303 654.42 653.701 647.52 656.528 640.102C659.354 632.684 662.683 625.125 666.513 617.425C672.964 603.958 679.227 590.56 685.302 577.23C691.374 563.774 697.193 550.325 702.758 536.883C708.194 523.318 713.249 509.7 717.923 496.031C722.597 482.361 726.698 468.581 730.227 454.69L737.565 425.637C737.786 424.492 738.255 423.213 738.975 421.801C739.694 420.389 740.543 419.1 741.522 417.933C742.624 416.637 743.733 415.594 744.849 414.803C745.962 413.886 747.087 413.411 748.225 413.379C749.489 413.343 751.096 414.246 753.046 416.089C754.996 417.932 756.894 420.155 758.739 422.76C760.58 425.238 762.169 427.724 763.504 430.216C764.84 432.709 765.526 434.587 765.562 435.851C765.658 439.264 764.606 444.545 762.404 451.692C760.326 458.709 757.203 466.832 753.036 476.059C751.124 480.035 748.672 485.039 745.68 491.07C742.81 496.971 739.634 503.197 736.15 509.748C739.33 505.863 742.206 502.428 744.778 499.446C747.351 496.463 749.493 493.935 751.206 491.862C753.29 489.526 755.128 487.386 756.717 485.444C761.855 479.225 766.709 474.154 771.279 470.229C775.846 466.178 779.997 463.087 783.732 460.957C787.59 458.697 791.088 457.143 794.227 456.295C797.493 455.443 800.39 454.982 802.918 454.91C804.561 454.864 806.281 455.258 808.075 456.093C809.867 456.801 811.551 458.208 813.129 460.314C814.707 462.421 815.99 465.294 816.979 468.935C818.094 472.573 818.732 477.236 818.893 482.925C819.061 488.866 818.426 495.463 816.986 502.715C815.547 509.968 813.417 517.429 810.598 525.1C807.779 532.771 804.327 540.46 800.244 548.167C796.287 555.87 791.81 563.082 786.813 569.802C781.942 576.519 776.609 582.553 770.815 587.904C765.02 593.255 758.94 597.476 752.575 600.566L755.798 600.475C764.142 600.239 772.204 598.998 779.985 596.754C787.892 594.506 795.441 590.813 802.634 585.675C809.827 580.537 816.657 573.765 823.124 565.358C829.588 556.825 835.551 546.218 841.012 533.538C841.362 532.516 841.846 531.744 842.464 531.22C843.082 530.696 843.707 530.426 844.339 530.408C845.097 530.386 845.8 530.62 846.446 531.107C847.093 531.595 847.43 532.345 847.459 533.356C847.48 534.114 847.253 535.007 846.776 536.032ZM943.942 401.956C944.021 404.737 943.294 408.11 941.761 412.076C940.225 415.915 938.18 419.642 935.625 423.256C933.194 426.741 930.432 429.729 927.339 432.221C924.373 434.709 921.436 435.994 918.529 436.076C914.61 436.187 911.226 435.081 908.377 432.757C905.654 430.431 904.255 427.94 904.18 425.285C904.148 424.147 904.478 422.43 905.173 420.133C905.993 417.833 906.998 415.337 908.187 412.646C909.499 409.826 911 407 912.691 404.169C914.505 401.207 916.391 398.56 918.35 396.228C920.431 393.765 922.463 391.81 924.446 390.362C926.552 388.784 928.617 387.966 930.639 387.909C935.696 387.766 939.143 388.87 940.981 391.222C942.819 393.574 943.806 397.152 943.942 401.956ZM923.195 533.869C919.053 543.981 914.445 553.284 909.372 561.778C904.421 570.142 899.249 577.373 893.855 583.472C888.457 589.445 882.834 594.159 876.985 597.614C871.263 601.065 865.558 602.872 859.869 603.033C855.571 603.154 851.878 602.31 848.79 600.5C845.706 598.816 843.171 596.42 841.185 593.313C839.073 590.21 837.516 586.585 836.513 582.439C835.506 578.166 834.933 573.564 834.793 568.634C834.532 559.405 835.539 550.267 837.813 541.22C840.084 532.047 843.057 523.106 846.732 514.399C850.531 505.561 854.84 496.899 859.661 488.413C864.481 479.926 869.309 471.692 874.144 463.711C875.228 461.783 876.57 460.037 878.171 458.473C879.771 456.91 881.33 456.107 882.847 456.064C884.996 456.003 887.156 456.321 889.326 457.019C891.497 457.717 893.485 458.672 895.291 459.887C897.093 460.974 898.521 462.262 899.575 463.751C900.752 465.109 901.362 466.547 901.405 468.064C901.455 469.834 900.463 472.772 898.429 476.878C896.394 480.984 893.814 485.928 890.688 491.71C887.559 497.365 884.194 503.66 880.595 510.594C877.122 517.524 873.846 524.702 870.767 532.127C867.687 539.552 865.179 547.024 863.241 554.544C861.299 561.937 860.423 568.983 860.613 575.684C860.66 577.327 860.769 578.969 860.942 580.608C861.238 582.118 861.72 583.496 862.388 584.743C863.178 585.859 864.28 586.777 865.692 587.496C867.227 588.085 869.258 588.344 871.787 588.272C874.441 588.197 877.684 586.524 881.513 583.252C885.469 579.977 889.523 575.688 893.674 570.383C897.948 564.948 902.142 558.883 906.254 552.188C910.489 545.362 914.151 538.427 917.241 531.381C918.195 529.329 919.304 528.286 920.568 528.25C921.453 528.225 922.219 528.456 922.865 528.944C923.512 529.432 923.849 530.181 923.878 531.193C923.899 531.951 923.672 532.843 923.195 533.869ZM945.41 547.663C945.535 552.088 946.162 556.372 947.292 560.515C948.421 564.658 949.98 568.346 951.97 571.579C954.082 574.683 956.683 577.203 959.775 579.139C962.992 581.073 966.687 581.98 970.859 581.862C976.674 581.697 982.258 580.084 987.612 577.023C993.089 573.831 998.161 569.766 1002.83 564.826C1007.62 559.883 1011.89 554.258 1015.64 547.953C1019.5 541.517 1022.73 534.974 1025.33 528.321C1025.68 527.299 1026.16 526.526 1026.78 526.003C1027.4 525.479 1028.02 525.208 1028.66 525.191C1029.54 525.165 1030.31 525.397 1030.95 525.885C1031.59 526.246 1031.93 526.996 1031.96 528.133C1031.98 528.513 1031.92 528.894 1031.81 529.276C1031.69 529.659 1031.52 530.17 1031.28 530.81C1028.81 537.458 1025.23 544.835 1020.52 552.939C1015.82 561.042 1010.09 568.669 1003.33 575.819C996.696 582.839 989.148 588.809 980.684 593.73C972.22 598.65 963.057 601.25 953.197 601.529C947.508 601.691 942.166 600.703 937.172 598.567C932.307 596.554 927.984 593.577 924.204 589.635C920.423 585.694 917.439 580.844 915.252 575.086C912.935 569.205 911.672 562.599 911.465 555.266C911.257 547.934 912.175 540.127 914.218 531.846C916.257 523.438 919.122 515.133 922.812 506.931C926.628 498.726 931.149 490.817 936.373 483.205C941.598 475.592 947.291 468.852 953.45 462.985C959.61 457.117 966.12 452.441 972.98 448.958C979.836 445.348 986.741 443.444 993.694 443.247C999.635 443.079 1004.05 444.915 1006.94 448.755C1009.96 452.592 1011.57 457.86 1011.76 464.56C1011.91 469.87 1010.85 474.897 1008.58 479.643C1006.43 484.385 1003.77 488.509 1000.58 492.015C997.514 495.518 994.367 498.327 991.138 500.443C988.031 502.428 985.593 503.446 983.823 503.496C982.306 503.539 981.528 502.866 981.488 501.475C981.474 500.969 981.825 499.947 982.54 498.409C983.614 496.101 984.681 493.604 985.744 490.917C986.93 488.1 987.927 485.351 988.737 482.672C989.673 479.988 990.421 477.373 990.982 474.827C991.543 472.281 991.796 470.06 991.742 468.163C991.628 464.118 989.737 462.147 986.071 462.251C983.417 462.326 980.541 463.546 977.445 465.911C974.476 468.273 971.403 471.459 968.227 475.471C965.177 479.48 962.213 484.245 959.332 489.767C956.575 495.158 954.085 501.049 951.862 507.438C949.762 513.696 948.113 520.259 946.916 527.125C945.718 533.991 945.216 540.837 945.41 547.663ZM1131.97 527.959C1127.69 537.443 1122.63 546.442 1116.8 554.958C1110.96 563.473 1104.6 570.991 1097.7 577.513C1090.92 583.904 1083.66 589.043 1075.93 592.931C1068.32 596.816 1060.6 598.869 1052.76 599.091C1047.07 599.252 1041.98 598.194 1037.49 595.917C1033 593.767 1029.18 590.712 1026.03 586.753C1022.88 582.793 1020.47 578.117 1018.8 572.724C1017.13 567.331 1016.21 561.537 1016.03 555.343C1015.74 545.103 1016.86 535.203 1019.37 525.643C1021.88 516.083 1025.3 507.13 1029.62 498.784C1033.93 490.438 1038.9 482.77 1044.53 475.779C1050.15 468.788 1055.86 462.806 1061.67 457.834C1067.47 452.735 1073.11 448.78 1078.6 445.968C1084.22 443.152 1089.11 441.685 1093.28 441.567C1096.44 441.478 1099.24 442.031 1101.68 443.227C1104.24 444.42 1106.38 446.067 1108.08 448.17C1109.78 450.146 1111.05 452.388 1111.88 454.894C1112.83 457.398 1113.35 459.914 1113.42 462.442C1113.64 470.153 1111.84 478.238 1108.03 486.696C1104.22 495.028 1099.13 503.016 1092.77 510.661C1086.4 518.179 1079.19 525.025 1071.15 531.199C1063.09 537.247 1054.87 541.781 1046.48 544.802C1046.61 549.48 1047.18 553.892 1048.18 558.039C1049.31 562.055 1050.86 565.617 1052.85 568.724C1054.96 571.701 1057.56 574.094 1060.64 575.905C1063.73 577.588 1067.36 578.371 1071.53 578.253C1075.7 578.135 1079.91 577.194 1084.16 575.429C1088.41 573.537 1092.76 570.567 1097.2 566.52C1101.76 562.342 1106.41 556.896 1111.16 550.183C1115.9 543.47 1120.85 535.233 1126.02 525.471C1127.23 523.412 1128.33 522.369 1129.35 522.34C1130.23 522.315 1131 522.547 1131.64 523.034C1132.29 523.522 1132.63 524.272 1132.66 525.283C1132.68 526.042 1132.45 526.934 1131.97 527.959ZM1087.83 463.546C1084.16 463.65 1080.11 465.915 1075.69 470.342C1071.38 474.765 1067.24 480.449 1063.26 487.394C1059.28 494.212 1055.7 501.841 1052.52 510.282C1049.47 518.592 1047.49 526.745 1046.57 534.741C1052.69 531.659 1058.72 527.882 1064.66 523.412C1070.73 518.812 1076.09 513.79 1080.75 508.344C1085.53 502.895 1089.35 497.157 1092.22 491.129C1095.08 484.975 1096.42 478.801 1096.25 472.607C1096.17 470.078 1095.42 467.949 1093.98 466.218C1092.53 464.362 1090.48 463.471 1087.83 463.546Z" fill="#1E1E1E"/>
<path d="M706.501 281.459C702.075 281.459 697.332 282.408 692.274 284.305C687.215 286.076 682.156 288.605 677.098 291.893C672.039 295.181 667.107 299.165 662.301 303.844C657.622 308.397 653.448 313.393 649.781 318.831C646.24 324.269 643.394 330.086 641.244 336.283C639.094 342.48 638.019 348.804 638.019 355.253C638.019 363.98 639.284 372.01 641.813 379.345C644.343 386.681 647.441 393.7 651.109 400.402C654.903 407.105 658.95 413.681 663.249 420.131C667.676 426.455 671.723 433.031 675.39 439.86C679.184 446.69 682.346 453.961 684.875 461.676C687.405 469.391 688.669 477.801 688.669 486.906C688.669 497.656 687.531 508.026 685.255 518.017C682.978 528.008 679.69 537.43 675.39 546.283C671.217 555.009 666.158 562.977 660.214 570.185C654.397 577.52 647.82 583.781 640.485 588.966C633.277 594.151 625.436 598.198 616.962 601.107C608.615 604.015 599.889 605.47 590.783 605.47C580.287 605.47 571.371 603.826 564.036 600.538C556.7 597.249 550.693 593.076 546.014 588.017C541.208 583.085 537.73 577.71 535.58 571.893C533.43 566.075 532.355 560.574 532.355 555.389C532.355 546.536 533.873 538.948 536.908 532.624C539.817 526.175 543.548 520.926 548.101 516.879C552.527 512.832 557.333 509.86 562.518 507.963C567.577 505.94 572.319 504.928 576.746 504.928C578.516 504.928 579.844 505.56 580.729 506.825C581.615 507.963 582.057 509.228 582.057 510.619C582.057 512.769 581.172 514.729 579.401 516.5C577.631 518.144 575.671 520.294 573.521 522.95C571.371 525.605 569.41 529.147 567.64 533.573C565.869 537.873 564.984 543.69 564.984 551.025C564.984 555.705 565.743 560.321 567.26 564.874C568.652 569.427 570.802 573.473 573.71 577.015C576.746 580.556 580.476 583.401 584.903 585.551C589.456 587.701 594.767 588.776 600.838 588.776C607.414 588.776 613.864 587.322 620.187 584.413C626.637 581.631 632.391 577.584 637.45 572.272C642.509 566.96 646.556 560.511 649.591 552.922C652.753 545.208 654.333 536.545 654.333 526.933C654.333 519.092 653.069 511.378 650.539 503.79C648.137 496.075 645.101 488.487 641.434 481.026C637.766 473.437 633.782 465.976 629.483 458.641C625.183 451.179 621.199 443.718 617.531 436.256C613.864 428.794 610.765 421.333 608.236 413.871C605.833 406.41 604.632 398.822 604.632 391.107C604.632 382.128 606.086 372.832 608.995 363.221C612.03 353.483 616.14 343.998 621.325 334.766C626.511 325.533 632.707 316.744 639.916 308.397C647.125 300.05 654.966 292.715 663.439 286.392C671.912 280.068 680.892 275.073 690.377 271.405C699.862 267.738 709.473 265.904 719.211 265.904C725.535 265.904 730.783 266.852 734.957 268.749C739.13 270.52 742.418 272.86 744.821 275.768C747.35 278.677 749.058 282.029 749.943 285.823C750.955 289.49 751.461 293.221 751.461 297.015C751.461 303.718 750.512 309.978 748.615 315.795C746.845 321.487 744.505 326.672 741.596 331.351C738.687 335.904 735.463 339.951 731.921 343.492C728.38 347.033 724.902 350.005 721.488 352.408C718.073 354.811 714.848 356.645 711.813 357.909C708.904 359.047 706.628 359.617 704.984 359.617C703.213 359.617 701.949 359.427 701.19 359.047C700.557 358.668 700.241 357.403 700.241 355.253C700.747 351.459 702.138 347.349 704.415 342.923C706.691 338.496 709.094 333.944 711.623 329.264C714.153 324.458 716.366 319.526 718.263 314.468C720.286 309.409 721.298 304.35 721.298 299.291C721.298 297.521 721.045 295.624 720.539 293.6C720.16 291.45 719.401 289.49 718.263 287.72C717.251 285.949 715.797 284.495 713.9 283.356C712.003 282.092 709.537 281.459 706.501 281.459Z" fill="#1E1E1E"/>
<path d="M259.023 104.587C254.479 104.558 249.604 105.499 244.398 107.412C239.193 109.196 233.983 111.758 228.768 115.1C223.553 118.441 218.463 122.497 213.498 127.268C208.663 131.91 204.345 137.01 200.544 142.568C196.872 148.127 193.912 154.079 191.663 160.426C189.414 166.773 188.268 173.257 188.224 179.878C188.165 188.836 189.41 197.089 191.957 204.636C194.504 212.183 197.637 219.409 201.357 226.314C205.206 233.221 209.316 239.999 213.687 246.649C218.188 253.17 222.298 259.948 226.017 266.984C229.866 274.02 233.062 281.506 235.607 289.443C238.151 297.379 239.393 306.021 239.331 315.368C239.259 326.403 238.02 337.041 235.616 347.282C233.212 357.523 229.773 367.173 225.299 376.232C220.956 385.161 215.709 393.306 209.558 400.666C203.537 408.157 196.744 414.539 189.179 419.812C181.744 425.086 173.668 429.188 164.95 432.117C156.362 435.046 147.394 436.481 138.046 436.419C127.271 436.348 118.129 434.6 110.622 431.175C103.114 427.75 96.9753 423.426 92.2059 418.201C87.3058 413.105 83.7719 407.564 81.6041 401.578C79.4363 395.592 78.3699 389.937 78.4049 384.614C78.4647 375.526 80.0738 367.747 83.2322 361.276C86.2617 354.675 90.127 349.312 94.828 345.188C99.3992 341.064 104.353 338.045 109.688 336.133C114.895 334.09 119.77 333.083 124.314 333.113C126.132 333.125 127.491 333.783 128.391 335.087C129.292 336.262 129.738 337.563 129.728 338.991C129.714 341.198 128.792 343.205 126.962 345.01C125.134 346.686 123.107 348.88 120.882 351.592C118.657 354.303 116.621 357.925 114.773 362.457C112.927 366.859 111.979 372.825 111.929 380.355C111.898 385.159 112.646 389.902 114.173 394.586C115.57 399.27 117.75 403.438 120.712 407.093C123.804 410.749 127.614 413.695 132.144 415.932C136.803 418.17 142.248 419.309 148.48 419.35C155.231 419.394 161.862 417.945 168.373 415.002C175.013 412.189 180.947 408.073 186.176 402.655C191.405 397.236 195.603 390.642 198.77 382.873C202.067 374.975 203.749 366.093 203.813 356.226C203.866 348.177 202.62 340.249 200.075 332.443C197.66 324.507 194.596 316.697 190.881 309.013C187.167 301.198 183.128 293.512 178.764 285.953C174.4 278.264 170.361 270.578 166.646 262.893C162.931 255.209 159.801 247.528 157.255 239.851C154.839 232.176 153.656 224.378 153.709 216.459C153.769 207.241 155.325 197.709 158.376 187.862C161.557 177.885 165.84 168.176 171.226 158.734C176.611 149.292 183.031 140.311 190.488 131.791C197.944 123.271 206.043 115.794 214.784 109.36C223.525 102.926 232.776 97.8584 242.538 94.1575C252.299 90.4565 262.178 88.6389 272.175 88.7046C278.666 88.7473 284.048 89.7564 288.319 91.7319C292.591 93.5776 295.951 96.0016 298.398 99.0038C300.975 102.007 302.705 105.459 303.588 109.359C304.602 113.131 305.096 116.964 305.071 120.859C305.025 127.74 304.009 134.16 302.023 140.119C300.167 145.949 297.73 151.256 294.713 156.04C291.696 160.694 288.358 164.827 284.699 168.438C281.04 172.049 277.45 175.077 273.928 177.52C270.407 179.964 267.084 181.825 263.959 183.103C260.966 184.251 258.625 184.82 256.937 184.809C255.12 184.797 253.823 184.594 253.046 184.199C252.4 183.806 252.084 182.505 252.098 180.298C252.643 176.407 254.099 172.197 256.466 167.668C258.833 163.14 261.33 158.482 263.958 153.696C266.587 148.78 268.892 143.731 270.874 138.551C272.985 133.372 274.058 128.186 274.092 122.993C274.104 121.175 273.857 119.226 273.351 117.145C272.976 114.936 272.211 112.918 271.054 111.093C270.027 109.269 268.544 107.766 266.605 106.585C264.666 105.274 262.138 104.608 259.023 104.587Z" fill="#EA0000"/>
<path d="M244.398 107.412L246.418 113.308L246.483 113.285L246.548 113.262L244.398 107.412ZM213.498 127.268L217.814 131.763L217.816 131.762L213.498 127.268ZM200.544 142.568L195.4 139.05L195.372 139.091L195.344 139.133L200.544 142.568ZM201.357 226.314L195.87 229.27L195.891 229.309L195.913 229.348L201.357 226.314ZM213.687 246.649L208.479 250.072L208.518 250.131L208.558 250.189L213.687 246.649ZM226.017 266.984L220.507 269.896L220.528 269.935L220.55 269.974L226.017 266.984ZM225.299 376.232L219.711 373.472L219.703 373.489L219.695 373.506L225.299 376.232ZM209.558 400.666L204.777 396.67L204.739 396.716L204.701 396.762L209.558 400.666ZM189.179 419.812L185.615 414.7L185.594 414.715L185.573 414.729L189.179 419.812ZM164.95 432.117L162.965 426.209L162.951 426.214L162.938 426.219L164.95 432.117ZM92.2059 418.201L96.8084 414L96.7538 413.94L96.6978 413.882L92.2059 418.201ZM83.2322 361.276L88.8325 364.01L88.8651 363.943L88.8961 363.875L83.2322 361.276ZM94.828 345.188L98.9375 349.873L98.9703 349.844L99.0027 349.815L94.828 345.188ZM109.688 336.133L111.791 341.999L111.878 341.968L111.965 341.934L109.688 336.133ZM128.391 335.087L123.262 338.628L123.351 338.757L123.447 338.881L128.391 335.087ZM126.962 345.01L131.173 349.605L131.258 349.527L131.34 349.446L126.962 345.01ZM114.773 362.457L120.52 364.868L120.532 364.839L120.544 364.81L114.773 362.457ZM114.173 394.586L120.144 392.805L120.122 392.729L120.098 392.655L114.173 394.586ZM120.712 407.093L115.871 411.017L115.912 411.068L115.954 411.118L120.712 407.093ZM132.144 415.932L129.384 421.519L129.415 421.535L129.446 421.549L132.144 415.932ZM168.373 415.002L165.942 409.263L165.874 409.292L165.806 409.323L168.373 415.002ZM186.176 402.655L181.692 398.327L186.176 402.655ZM198.77 382.873L193.019 380.472L193.009 380.497L192.999 380.521L198.77 382.873ZM200.075 332.443L194.113 334.257L194.131 334.316L194.15 334.374L200.075 332.443ZM190.881 309.013L185.253 311.688L185.261 311.706L185.27 311.725L190.881 309.013ZM178.764 285.953L173.344 289.029L173.355 289.049L173.367 289.069L178.764 285.953ZM157.255 239.851L151.311 241.723L151.325 241.768L151.34 241.813L157.255 239.851ZM158.376 187.862L152.439 185.968L152.431 185.993L152.423 186.017L158.376 187.862ZM171.226 158.734L176.639 161.821L171.226 158.734ZM288.319 91.7319L285.703 97.388L285.775 97.4213L285.848 97.4526L288.319 91.7319ZM298.398 99.0038L293.568 102.941L293.617 103.002L293.669 103.062L298.398 99.0038ZM303.588 109.359L297.51 110.736L297.538 110.857L297.57 110.977L303.588 109.359ZM302.023 140.119L296.111 138.148L296.098 138.188L296.085 138.229L302.023 140.119ZM294.713 156.04L299.942 159.43L299.963 159.397L299.983 159.365L294.713 156.04ZM263.959 183.103L266.192 188.921L266.256 188.896L266.318 188.871L263.959 183.103ZM253.046 184.199L249.805 189.522L250.01 189.646L250.223 189.755L253.046 184.199ZM252.098 180.298L245.927 179.434L245.869 179.844L245.867 180.257L252.098 180.298ZM263.958 153.696L269.421 156.695L269.437 156.665L269.453 156.635L263.958 153.696ZM270.874 138.551L265.103 136.199L265.077 136.261L265.053 136.325L270.874 138.551ZM273.351 117.145L267.207 118.188L267.244 118.404L267.296 118.617L273.351 117.145ZM271.054 111.093L265.623 114.149L265.703 114.291L265.79 114.428L271.054 111.093ZM266.605 106.585L263.114 111.747L263.237 111.83L263.363 111.907L266.605 106.585ZM259.064 98.3558C253.628 98.32 248.006 99.4473 242.248 101.563L246.548 113.262C251.202 111.551 255.33 110.795 258.982 110.819L259.064 98.3558ZM242.378 101.517C236.647 103.481 230.989 106.275 225.406 109.852L232.13 120.347C236.977 117.241 241.739 114.911 246.418 113.308L242.378 101.517ZM225.406 109.852C219.813 113.436 214.406 117.753 209.18 122.775L217.816 131.762C222.519 127.242 227.293 123.446 232.13 120.347L225.406 109.852ZM209.181 122.773C204.037 127.713 199.442 133.141 195.4 139.05L205.687 146.086C209.249 140.88 213.29 136.108 217.814 131.763L209.181 122.773ZM195.344 139.133C191.39 145.119 188.205 151.526 185.789 158.345L197.537 162.508C199.619 156.632 202.354 151.135 205.744 146.003L195.344 139.133ZM185.789 158.345C183.312 165.336 182.041 172.509 181.993 179.837L194.456 179.919C194.495 174.005 195.516 168.21 197.537 162.508L185.789 158.345ZM181.993 179.837C181.93 189.401 183.258 198.35 186.052 206.628L197.861 202.643C195.561 195.827 194.401 188.271 194.456 179.919L181.993 179.837ZM186.052 206.628C188.709 214.502 191.982 222.051 195.87 229.27L206.843 223.359C203.292 216.767 200.298 209.863 197.861 202.643L186.052 206.628ZM195.913 229.348C199.837 236.388 204.026 243.296 208.479 250.072L218.894 243.226C214.607 236.702 210.575 230.053 206.8 223.28L195.913 229.348ZM208.558 250.189C212.92 256.508 216.903 263.076 220.507 269.896L231.526 264.071C227.693 256.82 223.456 249.833 218.815 243.109L208.558 250.189ZM220.55 269.974C224.201 276.65 227.244 283.771 229.672 291.345L241.541 287.54C238.88 279.242 235.53 271.39 231.484 263.993L220.55 269.974ZM229.672 291.345C231.993 298.582 233.157 306.56 233.099 315.327L245.563 315.409C245.628 305.482 244.309 296.176 241.541 287.54L229.672 291.345ZM233.099 315.327C233.03 325.919 231.842 336.092 229.549 345.858L241.683 348.707C244.199 337.991 245.487 326.887 245.563 315.409L233.099 315.327ZM229.549 345.858C227.249 355.656 223.967 364.856 219.711 373.472L230.886 378.991C235.579 369.49 239.174 359.39 241.683 348.707L229.549 345.858ZM219.695 373.506C215.565 381.997 210.591 389.712 204.777 396.67L214.34 404.662C220.827 396.9 226.346 388.326 230.903 378.957L219.695 373.506ZM204.701 396.762C199.036 403.81 192.674 409.78 185.615 414.7L192.743 424.924C200.814 419.298 208.038 412.504 214.415 404.571L204.701 396.762ZM185.573 414.729C178.64 419.648 171.11 423.473 162.965 426.209L166.934 438.024C176.225 434.903 184.848 430.525 192.785 424.895L185.573 414.729ZM162.938 426.219C155.03 428.916 146.758 430.244 138.087 430.187L138.005 442.651C148.03 442.717 157.693 441.177 166.962 438.015L162.938 426.219ZM138.087 430.187C127.933 430.121 119.712 428.473 113.208 425.506L108.035 436.845C116.547 440.728 126.608 442.576 138.005 442.651L138.087 430.187ZM113.208 425.506C106.339 422.372 100.925 418.509 96.8084 414L87.6035 422.403C93.0254 428.342 99.8891 433.129 108.035 436.845L113.208 425.506ZM96.6978 413.882C92.3353 409.345 89.303 404.536 87.4635 399.456L75.7447 403.7C78.2408 410.593 82.2764 416.866 87.7141 422.521L96.6978 413.882ZM87.4635 399.456C85.4988 394.031 84.6073 389.112 84.6365 384.655L72.1733 384.573C72.1326 390.762 73.3739 397.152 75.7447 403.7L87.4635 399.456ZM84.6365 384.655C84.6917 376.263 86.1763 369.451 88.8325 364.01L77.632 358.543C73.9712 366.043 72.2376 374.789 72.1733 384.573L84.6365 384.655ZM88.8961 363.875C91.6185 357.943 94.9935 353.333 98.9375 349.873L90.7186 340.504C85.2605 345.291 80.905 351.406 77.5684 358.677L88.8961 363.875ZM99.0027 349.815C103.023 346.188 107.284 343.615 111.791 341.999L107.586 330.267C101.421 332.476 95.7754 335.94 90.6533 340.562L99.0027 349.815ZM111.965 341.934C116.598 340.116 120.682 339.321 124.273 339.345L124.355 326.882C118.858 326.845 113.192 328.064 107.412 330.332L111.965 341.934ZM124.273 339.345C124.441 339.346 124.288 339.373 123.98 339.224C123.83 339.152 123.679 339.054 123.543 338.935C123.408 338.818 123.317 338.706 123.262 338.628L133.519 331.547C131.281 328.305 127.861 326.905 124.355 326.882L124.273 339.345ZM123.447 338.881C123.484 338.93 123.502 338.96 123.507 338.97C123.513 338.98 123.51 338.978 123.506 338.964C123.501 338.951 123.498 338.937 123.496 338.928C123.495 338.919 123.497 338.925 123.497 338.95L135.96 339.032C135.979 336.165 135.046 333.525 133.335 331.294L123.447 338.881ZM123.497 338.95C123.495 339.232 123.447 339.724 122.585 340.575L131.34 349.446C134.136 346.685 135.933 343.164 135.96 339.032L123.497 338.95ZM122.752 340.416C120.638 342.354 118.406 344.784 116.064 347.639L125.7 355.544C127.808 352.975 129.63 351.018 131.173 349.605L122.752 340.416ZM116.064 347.639C113.321 350.982 111 355.205 109.003 360.105L120.544 364.81C122.241 360.646 123.993 357.625 125.7 355.544L116.064 347.639ZM109.027 360.047C106.736 365.506 105.75 372.387 105.698 380.314L118.161 380.396C118.208 373.263 119.117 368.212 120.52 364.868L109.027 360.047ZM105.698 380.314C105.662 385.805 106.519 391.214 108.248 396.518L120.098 392.655C118.773 388.591 118.134 384.513 118.161 380.396L105.698 380.314ZM108.201 396.368C109.822 401.801 112.375 406.704 115.871 411.017L125.553 403.169C123.124 400.172 121.318 396.738 120.144 392.805L108.201 396.368ZM115.954 411.118C119.628 415.461 124.132 418.925 129.384 421.519L134.903 410.344C131.097 408.465 127.98 406.036 125.47 403.069L115.954 411.118ZM129.446 421.549C135.088 424.259 141.474 425.536 148.439 425.582L148.521 413.118C143.023 413.082 138.519 412.08 134.842 410.314L129.446 421.549ZM148.439 425.582C156.141 425.632 163.658 423.972 170.94 420.68L165.806 409.323C160.065 411.918 154.321 413.156 148.521 413.118L148.439 425.582ZM170.803 420.74C178.25 417.585 184.875 412.977 190.66 406.982L181.692 398.327C177.019 403.17 171.775 406.792 165.942 409.263L170.803 420.74ZM190.66 406.982C196.499 400.931 201.108 393.645 204.54 385.226L192.999 380.521C190.097 387.64 186.31 393.541 181.692 398.327L190.66 406.982ZM204.52 385.275C208.174 376.523 209.976 366.822 210.045 356.267L197.582 356.185C197.521 365.364 195.96 373.428 193.019 380.472L204.52 385.275ZM210.045 356.267C210.102 347.535 208.748 338.941 206 330.511L194.15 334.374C196.492 341.557 197.63 348.82 197.582 356.185L210.045 356.267ZM206.037 330.629C203.526 322.376 200.342 314.266 196.492 306.301L185.27 311.725C188.849 319.128 191.795 326.638 194.113 334.257L206.037 330.629ZM196.509 306.338C192.724 298.372 188.607 290.538 184.16 282.837L173.367 289.069C177.649 296.485 181.611 304.025 185.253 311.688L196.509 306.338ZM184.183 282.877C179.885 275.303 175.91 267.738 172.257 260.181L161.035 265.605C164.812 273.417 168.915 281.225 173.344 289.029L184.183 282.877ZM172.257 260.181C168.653 252.727 165.626 245.296 163.17 237.89L151.34 241.813C153.976 249.76 157.21 257.691 161.035 265.605L172.257 260.181ZM163.199 237.98C160.974 230.913 159.892 223.76 159.94 216.5L147.477 216.418C147.421 224.996 148.703 233.438 151.311 241.723L163.199 237.98ZM159.94 216.5C159.996 207.961 161.437 199.037 164.328 189.706L152.423 186.017C149.212 196.38 147.542 206.521 147.477 216.418L159.94 216.5ZM164.313 189.755C167.357 180.21 171.461 170.899 176.639 161.821L165.812 155.647C160.22 165.453 155.757 175.561 152.439 185.968L164.313 189.755ZM176.639 161.821C181.809 152.756 187.984 144.114 195.177 135.895L185.798 127.687C178.079 136.507 171.413 145.827 165.812 155.647L176.639 161.821ZM195.177 135.895C202.349 127.701 210.116 120.534 218.478 114.379L211.09 104.341C201.969 111.055 193.54 118.842 185.798 127.687L195.177 135.895ZM218.478 114.379C226.781 108.267 235.535 103.477 244.747 99.9845L240.329 88.3305C230.017 92.24 220.268 97.5849 211.09 104.341L218.478 114.379ZM244.747 99.9845C253.822 96.5438 262.94 94.8758 272.134 94.9362L272.216 82.473C261.417 82.402 250.777 84.3693 240.329 88.3305L244.747 99.9845ZM272.134 94.9362C278.053 94.9751 282.484 95.8993 285.703 97.388L290.935 86.0758C285.611 83.6135 279.28 82.5194 272.216 82.473L272.134 94.9362ZM285.848 97.4526C289.385 98.9811 291.868 100.855 293.568 102.941L303.229 95.0666C300.034 91.1478 295.797 88.1742 290.791 86.0112L285.848 97.4526ZM293.669 103.062C295.577 105.286 296.849 107.814 297.51 110.736L309.666 107.983C308.561 103.103 306.373 98.728 303.127 94.9456L293.669 103.062ZM297.57 110.977C298.439 114.21 298.861 117.485 298.839 120.818L311.302 120.9C311.331 116.444 310.765 112.053 309.606 107.742L297.57 110.977ZM298.839 120.818C298.798 127.105 297.871 132.868 296.111 138.148L307.935 142.09C310.148 135.452 311.253 128.375 311.302 120.9L298.839 120.818ZM296.085 138.229C294.376 143.595 292.155 148.414 289.442 152.716L299.983 159.365C303.305 154.098 305.957 148.303 307.961 142.009L296.085 138.229ZM289.483 152.651C286.693 156.956 283.635 160.732 280.322 164.003L289.076 172.874C293.08 168.922 296.699 164.433 299.942 159.43L289.483 152.651ZM280.322 164.003C276.869 167.411 273.552 170.197 270.375 172.401L277.481 182.64C281.348 179.957 285.211 176.688 289.076 172.874L280.322 164.003ZM270.375 172.401C267.132 174.651 264.21 176.268 261.601 177.335L266.318 188.871C269.958 187.382 273.681 185.277 277.481 182.64L270.375 172.401ZM261.727 177.285C258.926 178.359 257.471 178.581 256.978 178.578L256.896 191.041C259.779 191.06 263.006 190.143 266.192 188.921L261.727 177.285ZM256.978 178.578C256.271 178.573 255.818 178.531 255.566 178.491C255.446 178.472 255.415 178.461 255.453 178.472C255.487 178.481 255.642 178.528 255.87 178.644L250.223 189.755C252.381 190.852 254.943 191.028 256.896 191.041L256.978 178.578ZM256.288 178.877C257.254 179.465 257.785 180.204 258.042 180.655C258.292 181.095 258.369 181.413 258.38 181.457C258.395 181.517 258.324 181.217 258.33 180.339L245.867 180.257C245.858 181.587 245.938 183.04 246.269 184.4C246.541 185.521 247.315 188.005 249.805 189.522L256.288 178.877ZM258.27 181.162C258.691 178.154 259.858 174.631 261.989 170.555L250.943 164.782C248.34 169.763 246.595 174.66 245.927 179.434L258.27 181.162ZM261.989 170.555C264.334 166.067 266.812 161.447 269.421 156.695L258.495 150.697C255.848 155.518 253.331 160.213 250.943 164.782L261.989 170.555ZM269.453 156.635C272.205 151.489 274.619 146.203 276.694 140.778L265.053 136.325C263.166 141.26 260.969 146.07 258.463 150.757L269.453 156.635ZM276.644 140.904C279.032 135.047 280.284 129.079 280.323 123.034L267.86 122.952C267.832 127.293 266.938 131.697 265.103 136.199L276.644 140.904ZM280.323 123.034C280.339 120.626 280.012 118.164 279.407 115.674L267.296 118.617C267.702 120.288 267.868 121.724 267.86 122.952L280.323 123.034ZM279.495 116.103C278.987 113.109 277.934 110.307 276.318 107.758L265.79 114.428C266.488 115.529 266.965 116.762 267.207 118.188L279.495 116.103ZM276.485 108.037C274.891 105.204 272.618 102.95 269.846 101.262L263.363 111.907C264.471 112.582 265.164 113.333 265.623 114.149L276.485 108.037ZM270.095 101.422C266.85 99.228 263.01 98.3817 259.064 98.3558L258.982 110.819C261.267 110.834 262.481 111.319 263.114 111.747L270.095 101.422Z" fill="black"/>
<path d="M74.1984 398.884C79.9948 440.127 121.786 449.935 158.039 443.058L74.1984 398.884Z" fill="#018F0F" stroke="black" stroke-width="6.23175" stroke-linecap="round" stroke-linejoin="round"/>
<path d="M63.2182 459.562C78.7332 452.868 86.1075 446.489 96.8041 430.192L105.096 438.701C99.2598 455.922 93.5075 459.843 79.8302 472.353C60.69 475.168 58.9001 474.273 63.2182 459.562Z" fill="#018F0F" stroke="black" stroke-width="6.23175" stroke-linecap="round" stroke-linejoin="round"/>
<path d="M100.411 438.526C100.561 438.075 100.622 437.629 100.924 437.29C101.107 437.083 101.273 436.615 101.366 436.361C101.595 435.733 102.06 435.166 102.322 434.538C102.502 434.106 102.776 433.682 102.908 433.234C103.102 432.571 103.472 431.887 103.75 431.239C103.861 430.981 103.623 431.37 103.595 431.461C103.269 432.517 102.954 433.522 102.48 434.526C102.031 435.478 101.422 436.424 101.128 437.436C101.051 437.7 100.974 437.976 100.836 438.217C100.459 438.877 99.9763 439.506 99.3419 439.946C98.5755 440.478 99.7282 438.789 99.7558 438.735C100.151 437.958 100.514 437.134 100.81 436.315C100.948 435.935 101.37 435.567 101.739 435.419C102.412 435.149 102.911 434.157 103.748 434.163C104.142 434.165 104.681 433.767 105.017 434.175C105.392 434.631 105.663 434.868 106.282 434.872C106.544 434.873 106.758 434.908 107.012 434.949C107.196 434.979 107.348 434.989 107.529 435.051C107.649 435.092 108.19 435.134 107.802 435.108C106.674 435.034 105.514 435.007 104.393 434.876C103.476 434.77 102.716 434.768 102.506 435.804C102.36 436.523 101.949 437.114 101.49 437.652C101.111 438.096 101.03 438.767 100.752 439.259C100.67 439.406 100.533 439.473 100.447 439.612C100.285 439.872 100.239 440.192 100.074 440.464C99.8713 440.796 99.6853 441.466 99.2967 441.613C98.7802 441.807 98.563 442.267 98.3065 442.709C98.1778 442.931 98.099 442.881 98.0338 442.587C97.9106 442.032 98.1666 441.306 98.2766 440.76C98.5628 439.338 98.1062 438.078 98.1155 436.664C98.1189 436.144 98.0214 435.538 98.2797 435.093C98.3332 435 98.5765 435.057 98.6646 435.048C98.9108 435.022 99.0305 434.802 99.2057 434.654C99.5783 434.341 99.6569 433.775 99.7571 433.337C99.9395 432.541 100.367 431.656 100.752 430.912C101.075 430.287 101.161 429.813 101.165 429.115C101.169 428.533 101.042 430.278 100.906 430.845C100.634 431.975 100.541 433.461 99.8185 434.41C99.5933 434.707 98.7303 435.332 98.4141 434.803C98.2227 434.483 98.2868 434.004 98.2892 433.648C98.2916 433.275 98.2613 432.883 98.3393 432.516C98.4053 432.206 98.5311 431.955 98.5332 431.632C98.5369 431.073 98.5905 430.658 98.2349 430.195C97.9532 429.827 97.8788 429.322 97.5076 429.014C97.3724 428.902 97.1892 428.911 97.0519 428.772C96.9156 428.634 96.7264 428.527 96.554 428.44C96.3096 428.315 96.1205 428.11 95.8815 428.016C95.5351 427.881 95.2047 427.617 94.8681 427.446C94.8088 427.416 94.5834 427.166 94.7493 427.308C94.9939 427.517 94.9896 427.838 95.2576 428.004C95.5855 428.207 95.7747 428.378 96.1735 428.454C96.5238 428.521 96.7784 428.541 97.0908 428.7C97.5774 428.947 97.7004 429.591 97.697 430.105C97.6905 431.088 97.6841 432.071 97.6776 433.054C97.6714 433.998 97.3629 435.122 96.8298 435.904C96.6402 436.182 96.4482 436.589 96.417 436.922C96.3974 437.133 96.2699 437.446 96.0922 437.574C95.6037 437.926 95.2931 438.51 95.0653 439.059C94.8012 439.695 94.3059 440.179 93.9301 440.753C93.7376 441.047 93.562 441.509 93.3082 441.744C93.1739 441.868 93.0167 442.013 92.942 442.186C92.8296 442.447 92.7178 442.552 92.6854 442.856C92.669 443.009 92.6595 443.341 92.5916 443.475C92.4605 443.733 91.909 443.932 91.8475 444.201C91.8305 444.275 91.9153 444.32 91.8888 444.406C91.8134 444.652 91.5347 444.862 91.3845 445.065C91.2289 445.275 91.103 445.562 90.8675 445.694C90.14 446.104 89.8468 446.71 89.7524 447.576C89.7172 447.9 89.7212 448.171 89.614 448.486C89.5854 448.569 89.4727 448.759 89.6553 448.695C90.256 448.487 90.868 448.032 91.3251 447.604C92.5389 446.467 93.1177 444.779 93.9002 443.355C94.2646 442.692 94.6982 442.066 95.1095 441.431C95.783 440.392 96.66 439.635 97.5374 438.776C98.7537 437.585 99.8973 436.073 100.174 434.353C100.352 433.24 100.467 431.932 100.304 430.811C100.06 429.131 98.5711 428.236 97.8725 426.816" stroke="#018F0F" stroke-width="3.11587"/>
<circle cx="155.374" cy="374.489" r="29.6011" transform="rotate(0.376579 155.374 374.489)" fill="#FFC700" stroke="black" stroke-width="3.11587"/>
<circle cx="158.879" cy="315.309" r="20.2534" transform="rotate(0.376579 158.879 315.309)" fill="#FF8A00" stroke="black" stroke-width="3.11587"/>
<circle cx="134.239" cy="271.523" r="20.2534" transform="rotate(0.376579 134.239 271.523)" fill="#FF8A00" stroke="black" stroke-width="3.11587"/>
<circle cx="112.203" cy="305.654" r="10.9057" transform="rotate(0.376579 112.203 305.654)" fill="#A8A8A8" stroke="black" stroke-width="3.11587"/>
<circle cx="255.777" cy="269.206" r="10.9057" transform="rotate(0.376579 255.777 269.206)" fill="#A8A8A8" stroke="black" stroke-width="3.11587"/>
<circle cx="250.447" cy="132.068" r="10.9057" transform="rotate(0.376579 250.447 132.068)" fill="#A8A8A8" stroke="black" stroke-width="3.11587"/>
<circle cx="225.315" cy="163.063" r="17.1375" transform="rotate(0.376579 225.315 163.063)" fill="#FFC700" stroke="black" stroke-width="3.11587"/>
<circle cx="246.737" cy="222.407" r="26.4852" transform="rotate(0.376579 246.737 222.407)" fill="#FF8A00" stroke="black" stroke-width="3.11587"/>
</svg>
